{
   "accessors" : [
      {
         "bufferView" : 0,
         "byteOffset" : 0,
         "componentType" : 5123,
         "count" : 92928,
         "max" : [ 61951 ],
         "min" : [ 0 ],
         "name" : "buffer-0-group-0-mesh-0-indices",
         "type" : "SCALAR"
      },
      {
         "bufferView" : 1,
         "byteOffset" : 0,
         "componentType" : 5126,
         "count" : 61952,
         "max" : [ 7.191614151000977, 3.961817026138306, 3.592736005783081 ],
         "min" : [ -7.191614151000977, 0, -25.18600273132324 ],
         "name" : "buffer-0-group-0-mesh-0-position",
         "type" : "VEC3"
      },
      {
         "bufferView" : 1,
         "byteOffset" : 743424,
         "componentType" : 5126,
         "count" : 61952,
         "max" : [ 0.9895794987678528, 1, 0.9910778403282166 ],
         "min" : [ -0.9895794987678528, 0.1059045419096947, -0.9860168099403381 ],
         "name" : "buffer-0-group-0-mesh-0-normal",
         "type" : "VEC3"
      },
      {
         "bufferView" : 2,
         "byteOffset" : 0,
         "componentType" : 5126,
         "count" : 61952,
         "max" : [ 0, 0 ],
         "min" : [ 0, 0 ],
         "name" : "buffer-0-group-0-mesh-0-texcoord",
         "type" : "VEC2"
      },
      {
         "bufferView" : 0,
         "byteOffset" : 185856,
         "componentType" : 5123,
         "count" : 168705,
         "max" : [ 65534 ],
         "min" : [ 0 ],
         "name" : "buffer-0-group-1-mesh-0-indices",
         "type" : "SCALAR"
      },
      {
         "bufferView" : 1,
         "byteOffset" : 1486848,
         "componentType" : 5126,
         "count" : 65535,
         "max" : [ 7.197754859924316, 3.962495088577271, 3.598876953125 ],
         "min" : [ -7.197754859924316, 0, -10.79663276672363 ],
         "name" : "buffer-0-group-1-mesh-0-position",
         "type" : "VEC3"
      },
      {
         "bufferView" : 1,
         "byteOffset" : 2273268,
         "componentType" : 5126,
         "count" : 65535,
         "max" : [ 0.9918226599693298, 1, 0.9883151650428772 ],
         "min" : [ -0.9918226599693298, 0.06619951874017715, -0.9872856140136719 ],
         "name" : "buffer-0-group-1-mesh-0-normal",
         "type" : "VEC3"
      },
      {
         "bufferView" : 2,
         "byteOffset" : 495616,
         "componentType" : 5126,
         "count" : 65535,
         "max" : [ 0.9814940094947815, -0.01638399995863438 ],
         "min" : [ 0.02126399986445904, -0.9883930087089539 ],
         "name" : "buffer-0-group-1-mesh-0-texcoord",
         "type" : "VEC2"
      },
      {
         "bufferView" : 0,
         "byteOffset" : 523266,
         "componentType" : 5123,
         "count" : 154818,
         "max" : [ 65534 ],
         "min" : [ 0 ],
         "name" : "buffer-0-group-1-mesh-1-indices",
         "type" : "SCALAR"
      },
      {
         "bufferView" : 1,
         "byteOffset" : 3059688,
         "componentType" : 5126,
         "count" : 65535,
         "max" : [ 7.197754859924316, 3.962495088577271, -3.598876953125 ],
         "min" : [ -7.197754859924316, 0, -25.19214248657227 ],
         "name" : "buffer-0-group-1-mesh-1-position",
         "type" : "VEC3"
      },
      {
         "bufferView" : 1,
         "byteOffset" : 3846108,
         "componentType" : 5126,
         "count" : 65535,
         "max" : [ 0.9918226599693298, 1, 0.9883188605308533 ],
         "min" : [ -0.9918226599693298, 0.06619951874017715, -0.9872856140136719 ],
         "name" : "buffer-0-group-1-mesh-1-normal",
         "type" : "VEC3"
      },
      {
         "bufferView" : 2,
         "byteOffset" : 1019896,
         "componentType" : 5126,
         "count" : 65535,
         "max" : [ 0.9814940094947815, -0.01638399995863438 ],
         "min" : [ 0.02126399986445904, -0.9883930087089539 ],
         "name" : "buffer-0-group-1-mesh-1-texcoord",
         "type" : "VEC2"
      },
      {
         "bufferView" : 0,
         "byteOffset" : 832902,
         "componentType" : 5123,
         "count" : 48189,
         "max" : [ 20379 ],
         "min" : [ 0 ],
         "name" : "buffer-0-group-1-mesh-2-indices",
         "type" : "SCALAR"
      },
      {
         "bufferView" : 1,
         "byteOffset" : 4632528,
         "componentType" : 5126,
         "count" : 20380,
         "max" : [ 7.197754859924316, 3.962495088577271, -17.34004592895508 ],
         "min" : [ 0, 0, -25.19214248657227 ],
         "name" : "buffer-0-group-1-mesh-2-position",
         "type" : "VEC3"
      },
      {
         "bufferView" : 1,
         "byteOffset" : 4877088,
         "componentType" : 5126,
         "count" : 20380,
         "max" : [ 0.9892492294311523, 1, 0.9842928051948547 ],
         "min" : [ -0.9918126463890076, 0.06619951874017715, -0.9872856140136719 ],
         "name" : "buffer-0-group-1-mesh-2-normal",
         "type" : "VEC3"
      },
      {
         "bufferView" : 2,
         "byteOffset" : 1544176,
         "componentType" : 5126,
         "count" : 20380,
         "max" : [ 0.9814940094947815, -0.4582059979438782 ],
         "min" : [ 0.02126399986445904, -0.9883930087089539 ],
         "name" : "buffer-0-group-1-mesh-2-texcoord",
         "type" : "VEC2"
      }
   ],
   "asset" : {
      "extras" : {
         "GOOGLE_processor_version" : 294144208
      },
      "generator" : "Obj2GltfConverter",
      "version" : "2.0"
   },
   "bufferViews" : [
      {
         "buffer" : 0,
         "byteLength" : 929280,
         "byteOffset" : 0,
         "name" : "buffer-0-bufferview-ushort",
         "target" : 34963
      },
      {
         "buffer" : 0,
         "byteLength" : 5121648,
         "byteOffset" : 929280,
         "byteStride" : 12,
         "name" : "buffer-0-bufferview-vec3",
         "target" : 34962
      },
      {
         "buffer" : 0,
         "byteLength" : 1707216,
         "byteOffset" : 6050928,
         "byteStride" : 8,
         "name" : "buffer-0-bufferview-vec2",
         "target" : 34962
      }
   ],
   "buffers" : [
      {
         "byteLength" : 7758144,
         "name" : "buffer-0",
         "uri" : "wafflesynthwaveroad.bin"
      }
   ],
   "cameras" : [
      {
         "perspective" : {
            "yfov" : 0.7853981633974483,
            "znear" : 0.1000000014901161
         },
         "type" : "perspective"
      }
   ],
   "extensions" : {
      "KHR_lights_punctual" : {
         "lights" : [
            {
               "color" : [ 1, 0.9333333333333333, 0.8666666666666667 ],
               "intensity" : 0.25,
               "name" : "headLight",
               "type" : "directional"
            },
            {
               "color" : [ 1, 0.9333333333333333, 0.8666666666666667 ],
               "intensity" : 0.324999988079071,
               "name" : "keyLight",
               "type" : "directional"
            }
         ]
      }
   },
   "extensionsUsed" : [ "GOOGLE_backgrounds", "GOOGLE_camera_settings", "KHR_lights_punctual" ],
   "extras" : {
      "GOOGLE_initial_camera_motion" : {
         "motionPath" : "FULL_ROTATION"
      },
      "GOOGLE_lighting_rig" : {
         "disableShadows" : false
      }
   },
   "images" : [
      {
         "mimeType" : "image/png",
         "name" : "Material.002-diffuse-image",
         "uri" : "purpteal.png"
      }
   ],
   "materials" : [
      {
         "alphaMode" : "OPAQUE",
         "doubleSided" : true,
         "name" : "Material.001",
         "pbrMetallicRoughness" : {
            "baseColorFactor" : [ 0, 0, 0, 1 ],
            "metallicFactor" : 0,
            "roughnessFactor" : 0.7448017359246658
         }
      },
      {
         "alphaMode" : "OPAQUE",
         "doubleSided" : true,
         "name" : "Material.002",
         "pbrMetallicRoughness" : {
            "baseColorFactor" : [ 0.64, 0.64, 0.64, 1 ],
            "baseColorTexture" : {
               "index" : 0,
               "texCoord" : 0
            },
            "metallicFactor" : 0,
            "roughnessFactor" : 0.7448017359246658
         }
      }
   ],
   "meshes" : [
      {
         "name" : "buffer-0-mesh-0",
         "primitives" : [
            {
               "attributes" : {
                  "NORMAL" : 2,
                  "POSITION" : 1,
                  "TEXCOORD_0" : 3
               },
               "indices" : 0,
               "material" : 0,
               "mode" : 4
            },
            {
               "attributes" : {
                  "NORMAL" : 6,
                  "POSITION" : 5,
                  "TEXCOORD_0" : 7
               },
               "indices" : 4,
               "material" : 1,
               "mode" : 4
            },
            {
               "attributes" : {
                  "NORMAL" : 10,
                  "POSITION" : 9,
                  "TEXCOORD_0" : 11
               },
               "indices" : 8,
               "material" : 1,
               "mode" : 4
            },
            {
               "attributes" : {
                  "NORMAL" : 14,
                  "POSITION" : 13,
                  "TEXCOORD_0" : 15
               },
               "indices" : 12,
               "material" : 1,
               "mode" : 4
            }
         ]
      }
   ],
   "nodes" : [
      {
         "mesh" : 0,
         "name" : "node-0"
      },
      {
         "children" : [ 2 ]
      },
      {
         "children" : [ 3 ],
         "extras" : {
            "isTransformNode" : 1
         },
         "translation" : [ -0.07197754859924324, 1.166201483765427, -10.72465521812439 ]
      },
      {
         "children" : [ 0 ],
         "translation" : [ 0.07197754859924324, -1.166201483765427, 10.72465521812439 ]
      },
      {
         "camera" : 0,
         "children" : [ 5 ],
         "rotation" : [
            -0.04320175845143639,
            -0.002812034839726586,
            -0.0001215988605900848,
            0.9990624033264794
         ],
         "translation" : [ -0.126912989887507, 2.011771610740756, -0.9659747042793096 ]
      },
      {
         "extensions" : {
            "KHR_lights_punctual" : {
               "light" : 0
            }
         },
         "extras" : {
            "isHeadLight" : 1
         },
         "name" : "headLightNode",
         "translation" : [ -17.78509617623451, 8.892548088117254, 8.892548088117254 ]
      },
      {
         "extensions" : {
            "KHR_lights_punctual" : {
               "light" : 1
            }
         },
         "extras" : {
            "isKeyLight" : 1
         },
         "name" : "keyLightNode",
         "rotation" : [ -0.7505326882858236, -0.3752663441429118, 0, 0.5439447166468927 ],
         "scale" : [ 0, 0, 17.96294713799685 ],
         "translation" : [ -17.9616861475483, 36.45024174537319, -28.8341242009618 ]
      }
   ],
   "samplers" : [
      {
         "name" : "Material.002-diffuse-sampler",
         "wrapS" : 10497,
         "wrapT" : 10497
      }
   ],
   "scene" : 0,
   "scenes" : [
      {
         "extensions" : {
            "GOOGLE_backgrounds" : {
               "color" : [ 0, 0, 0 ]
            },
            "GOOGLE_camera_settings" : {
               "pivot" : [ -0.07197754859923577, 1.16620148376542, -10.72465521812441 ]
            }
         },
         "extras" : {
            "GOOGLE_camera_index" : {
               "cameraIndex" : 0,
               "nodeIndex" : 4
            },
            "GOOGLE_geometry_data" : {
               "stats" : {
                  "centroid" : [ 0.001260990448549332, 0.5243474693794828, -10.87117706296495 ],
                  "radius" : 17.78509617623451,
                  "stdev" : 9.563799624336578
               },
               "visualCenterPoint" : [ -0.07197754859924324, 1.166201483765427, -10.72465521812439 ]
            },
            "GOOGLE_hemi_light" : {
               "groundColor" : [ 0, 0, 0 ]
            }
         },
         "name" : "scene-0",
         "nodes" : [ 1, 4, 6 ]
      }
   ],
   "textures" : [
      {
         "name" : "Material.002-diffuse-texture",
         "sampler" : 0,
         "source" : 0
      }
   ]
}
